<svg xmlns="http://www.w3.org/2000/svg" viewBox="0 0 760 300" width="760" height="300" role="img" aria-label="Dev server memory with the guard on">

<style>
  .surface { fill: #fcfcfb; }
  .ink { fill: #0b0b0b; }
  .muted { fill: #52514e; }
  .grid { stroke: #e4e3df; }
  .s1 { stroke: #2a78d6; fill: none; }
  .s1f { fill: #2a78d6; }
  .s1a { fill: #2a78d6; fill-opacity: 0.12; }
  .s2 { stroke: #eb6834; fill: none; }
  .s2f { fill: #eb6834; }
  .rule { stroke: #52514e; }
  .ring { stroke: #fcfcfb; }
  text { font-family: -apple-system, BlinkMacSystemFont, "SF Pro Rounded", "Segoe UI", sans-serif; }
  @media (prefers-color-scheme: dark) {
    .surface { fill: #1a1a19; }
    .ink { fill: #ffffff; }
    .muted { fill: #c3c2b7; }
    .grid { stroke: #33332f; }
    .s1 { stroke: #3987e5; }
    .s1f { fill: #3987e5; }
    .s1a { fill: #3987e5; fill-opacity: 0.16; }
    .s2 { stroke: #d95926; }
    .s2f { fill: #d95926; }
    .rule { stroke: #c3c2b7; }
    .ring { stroke: #1a1a19; }
  }
</style>

<rect class="surface" x="0" y="0" width="760" height="300" rx="14"/>
<text class="ink" x="56" y="30" font-size="16" font-weight="600">Dev server memory with the guard on</text>
<text class="muted" x="56" y="50" font-size="12">All dev servers together, one afternoon of agents in Orca · dashed: the 35% RAM budget · dots: the guard acting</text>
<line class="grid" x1="56" x2="640" y1="256.0" y2="256.0" stroke-width="1"/>
<text class="muted" x="48" y="260.0" font-size="11" text-anchor="end">0 GB</text>
<line class="grid" x1="56" x2="640" y1="208.0" y2="208.0" stroke-width="1"/>
<text class="muted" x="48" y="212.0" font-size="11" text-anchor="end">5 GB</text>
<line class="grid" x1="56" x2="640" y1="160.0" y2="160.0" stroke-width="1"/>
<text class="muted" x="48" y="164.0" font-size="11" text-anchor="end">10 GB</text>
<line class="grid" x1="56" x2="640" y1="112.0" y2="112.0" stroke-width="1"/>
<text class="muted" x="48" y="116.0" font-size="11" text-anchor="end">15 GB</text>
<line class="grid" x1="56" x2="640" y1="64.0" y2="64.0" stroke-width="1"/>
<text class="muted" x="48" y="68.0" font-size="11" text-anchor="end">20 GB</text>
<path class="s1a" d="M56.0,164.9 L61.8,162.1 L67.5,160.1 L73.7,156.1 L79.4,154.5 L85.2,155.6 L91.2,175.3 L96.9,171.3 L102.7,168.4 L108.5,174.5 L114.3,171.8 L120.2,209.5 L126.0,209.5 L131.8,208.1 L137.5,208.1 L143.3,207.1 L149.1,207.8 L154.7,207.8 L160.6,207.5 L166.4,210.0 L172.2,209.5 L177.9,209.6 L183.7,200.0 L189.5,200.0 L195.1,169.3 L200.8,168.8 L206.6,168.7 L212.4,168.3 L218.1,165.7 L223.9,165.7 L229.7,164.1 L235.5,111.8 L241.2,111.4 L247.2,169.5 L253.0,202.0 L258.7,207.3 L264.5,184.6 L270.3,175.0 L276.0,173.4 L282.2,209.6 L287.8,198.9 L293.5,200.1 L299.3,198.0 L305.3,201.0 L311.2,251.9 L317.0,251.9 L322.7,247.5 L328.5,232.4 L334.3,212.4 L340.1,200.6 L345.8,202.9 L351.6,202.6 L357.4,202.6 L363.2,202.6 L368.9,202.6 L374.7,202.6 L380.5,202.7 L386.2,202.7 L392.0,202.7 L397.8,202.7 L403.4,202.7 L409.3,202.7 L414.9,202.4 L420.7,202.4 L426.5,202.4 L432.2,202.4 L438.0,202.4 L443.8,202.4 L449.5,202.4 L455.3,202.4 L461.1,202.4 L466.9,202.0 L472.6,202.0 L478.4,202.0 L484.2,202.0 L489.9,202.0 L495.7,202.0 L501.5,202.0 L507.3,202.0 L513.0,202.0 L518.8,202.0 L524.6,202.0 L530.3,202.0 L536.1,202.0 L541.9,202.0 L547.8,202.0 L553.6,202.0 L559.4,202.0 L565.2,202.0 L570.7,202.0 L576.5,202.0 L582.3,202.0 L588.1,202.0 L593.8,202.0 L599.6,202.0 L605.4,202.0 L611.1,202.0 L616.9,130.8 L622.7,179.3 L628.5,179.3 L634.2,181.0 L640.0,181.0 L640.0,256.0 L56.0,256.0 Z"/>
<path class="s1" d="M56.0,164.9 L61.8,162.1 L67.5,160.1 L73.7,156.1 L79.4,154.5 L85.2,155.6 L91.2,175.3 L96.9,171.3 L102.7,168.4 L108.5,174.5 L114.3,171.8 L120.2,209.5 L126.0,209.5 L131.8,208.1 L137.5,208.1 L143.3,207.1 L149.1,207.8 L154.7,207.8 L160.6,207.5 L166.4,210.0 L172.2,209.5 L177.9,209.6 L183.7,200.0 L189.5,200.0 L195.1,169.3 L200.8,168.8 L206.6,168.7 L212.4,168.3 L218.1,165.7 L223.9,165.7 L229.7,164.1 L235.5,111.8 L241.2,111.4 L247.2,169.5 L253.0,202.0 L258.7,207.3 L264.5,184.6 L270.3,175.0 L276.0,173.4 L282.2,209.6 L287.8,198.9 L293.5,200.1 L299.3,198.0 L305.3,201.0 L311.2,251.9 L317.0,251.9 L322.7,247.5 L328.5,232.4 L334.3,212.4 L340.1,200.6 L345.8,202.9 L351.6,202.6 L357.4,202.6 L363.2,202.6 L368.9,202.6 L374.7,202.6 L380.5,202.7 L386.2,202.7 L392.0,202.7 L397.8,202.7 L403.4,202.7 L409.3,202.7 L414.9,202.4 L420.7,202.4 L426.5,202.4 L432.2,202.4 L438.0,202.4 L443.8,202.4 L449.5,202.4 L455.3,202.4 L461.1,202.4 L466.9,202.0 L472.6,202.0 L478.4,202.0 L484.2,202.0 L489.9,202.0 L495.7,202.0 L501.5,202.0 L507.3,202.0 L513.0,202.0 L518.8,202.0 L524.6,202.0 L530.3,202.0 L536.1,202.0 L541.9,202.0 L547.8,202.0 L553.6,202.0 L559.4,202.0 L565.2,202.0 L570.7,202.0 L576.5,202.0 L582.3,202.0 L588.1,202.0 L593.8,202.0 L599.6,202.0 L605.4,202.0 L611.1,202.0 L616.9,130.8 L622.7,179.3 L628.5,179.3 L634.2,181.0 L640.0,181.0" stroke-width="2" stroke-linejoin="round"/>
<line class="rule" x1="56" x2="640" y1="94.7" y2="94.7" stroke-width="1" stroke-dasharray="4 4"/>
<text class="muted" x="648" y="98.7" font-size="11">budget 16.8 GB</text>
<circle class="s2f ring" cx="88.2" cy="155.6" r="5" stroke-width="2"/>
<text class="muted" x="88.2" y="145.6" font-size="10" text-anchor="middle">stop</text>
<circle class="s2f ring" cx="118.1" cy="209.5" r="5" stroke-width="2"/>
<text class="muted" x="118.1" y="199.5" font-size="10" text-anchor="middle">restart</text>
<circle class="s2f ring" cx="243.2" cy="111.4" r="5" stroke-width="2"/>
<text class="muted" x="243.2" y="101.4" font-size="10" text-anchor="middle">stop</text>
<circle class="s2f ring" cx="309.0" cy="251.9" r="5" stroke-width="2"/>
<text class="muted" x="309.0" y="241.9" font-size="10" text-anchor="middle">restart</text>
<text class="ink" x="650.0" y="185.0" font-size="12" font-weight="600">dev servers</text>
<text class="muted" x="56.0" y="276" font-size="11" text-anchor="middle">17:51</text>
<text class="muted" x="348.0" y="276" font-size="11" text-anchor="middle">18:18</text>
<text class="muted" x="640.0" y="276" font-size="11" text-anchor="middle">18:45</text>
</svg>